<svg width="325" height="110" viewBox="0 0 325 110" fill="none" xmlns="http://www.w3.org/2000/svg">
<path d="M95.1162 66.0447C93.3226 67.0171 93.321 67.2789 95.0061 68.0122C95.0401 67.4057 95.0709 66.8529 95.1162 66.0447ZM239.355 63.1764C239.155 63.2431 238.569 63.3065 238.051 63.3179L237.696 63.2935L237.097 63.2512C236.838 63.6252 236.704 64.0528 236.799 64.2041C236.895 64.3537 237.426 64.5667 237.722 64.3244C238.02 64.0837 238.551 62.3862 238.65 62.8171C238.748 63.2447 239.558 63.1098 239.355 63.1764ZM242.075 57.1943C241.942 57.7943 241.567 58.2951 241.24 58.3065L241.033 58.4236C239.849 59.0902 238.557 59.5748 237.262 60.0642L236.83 60.2285C236.401 60.4854 235.572 60.9098 234.988 61.1732C234.402 61.435 232.973 62.0545 232.443 62.2642C231.914 62.4756 230.745 63.3211 230.472 63.3748C230.2 63.4301 229.157 64.1781 228.272 64.474C227.386 64.7699 225.324 66.1081 225.07 66.1065C224.814 66.1049 224.082 66.5472 223.869 66.7455C223.652 66.9439 222.791 67.4691 222.527 67.5781C222.261 67.687 221.224 68.1504 220.827 68.396C220.432 68.6431 218.914 69.6057 218.256 69.8935C217.601 70.1829 215.54 71.0057 215.229 71.2935L215.03 71.3553L214.248 71.6025C213.555 72.0756 212.113 72.9244 211.041 73.4919L210.073 74.0333C209.62 74.2854 209.177 74.5651 208.68 74.7407L207.699 75.0838C206.727 75.7374 205.732 76.2155 205.486 76.1455C205.241 76.0756 204.56 76.7455 204.358 76.9553C204.155 77.1634 203.241 77.6122 202.917 77.6529C202.593 77.6935 201.382 78.0073 200.631 78.0122L200.6 78.8317C200.594 79.009 199.883 79.2138 199.464 79.3033L199.343 79.3293C199.072 79.2935 198.452 79.6756 197.965 80.1764C197.476 80.6805 195.16 81.4805 194.71 81.7407C194.261 82.0008 193.356 82.9846 193.29 82.8285C193.222 82.674 192.953 82.6008 192.803 82.9212C192.651 83.2399 191.569 83.5342 191.585 83.6464C191.603 83.7602 191.43 83.9699 191.161 83.8643L190.906 83.796C190.823 83.7732 190.661 83.8122 190.606 83.8691C190.32 84.1634 190.107 84.6691 189.772 84.7277L189.258 84.8171C188.822 85.0285 188.011 85.4496 187.453 85.7488C186.894 86.0512 184.515 87.3829 183.458 88.1098L182.447 88.7293C182.231 88.8626 181.994 89.009 181.74 89.0561C181.397 89.1212 180.994 89.0317 180.685 89.1391C180.507 89.1992 180.519 89.5618 180.348 89.713L180.149 89.887C179.854 90.0382 179.513 90.3033 179.391 90.4756L179.258 90.4838L178.76 90.5147C178.459 90.8155 178.067 91.261 177.887 91.5C177.709 91.7423 176.576 91.4464 176.207 91.5764L176.165 91.7537L176.019 92.3748C175.393 92.5439 174.747 92.8187 174.587 92.9846C174.426 93.1521 173.577 93.3764 173.115 93.4366L172.952 93.9521L172.788 94.4659C172.146 94.8025 171.569 95.0659 171.508 95.0529C171.448 95.0382 171.171 94.9049 170.996 94.8204C170.825 94.7358 170.213 95.3439 169.996 95.5618C169.779 95.7797 168.443 96.5098 167.658 96.8773L167.032 97.3586L166.392 97.8496C165.475 98.1862 164.443 98.7114 164.099 99.0155C163.755 99.3195 162.346 99.5878 162.269 99.7147C162.195 99.8431 160.965 100.666 159.806 101.318L158.755 101.591C158.43 101.677 157.942 101.611 157.771 101.78L157.245 102.297C156.565 102.744 155.641 102.879 155.189 102.598L154.949 103.292L154.846 103.594C154.404 103.841 153.847 104.11 153.607 104.191C153.368 104.271 152.002 104.664 151.116 104.915C150.231 105.167 147.775 106.544 147.27 106.811L146.765 106.955L144.785 107.523C142.707 108.333 140.397 109.147 139.65 109.333C138.904 109.52 136.91 110.061 136.826 109.994C136.743 109.928 136.317 109.897 136.066 109.918C135.815 109.942 135.008 109.897 134.97 109.742C134.933 109.588 134.496 109.11 134.14 109.258C133.785 109.406 132.923 109.511 132.955 109.189C132.986 108.868 131.79 109.305 131.364 109.139C130.938 108.972 129.713 108.765 129.585 109.05L129.368 109.087L128.126 109.297C126.726 109.362 125.533 109.396 125.471 109.373C125.412 109.352 125.081 109.079 124.834 108.853C124.586 108.625 122.911 108.557 121.876 107.895L121.805 107.105C121.795 106.985 122.294 105.367 122.355 105.261L122.472 105.063C122.582 104.838 122.731 104.381 122.802 104.048C122.873 103.715 122.865 102.663 122.634 102.435C122.401 102.206 121.476 102.344 121.476 101.845C121.476 101.342 121.036 99.9732 120.499 99.7732C119.961 99.5748 119.017 98.2317 118.3 98.0773L118.705 97.2431L118.904 96.8301C118.812 96.2756 118.569 95.2285 118.367 94.5033C118.164 93.7781 116.741 90.8106 116.128 89.3114L115.464 87.9829L115.401 87.8577C115.527 87.6512 115.707 87.0106 115.799 86.4317C115.892 85.8545 115.395 84.3098 115.39 84.2447C115.385 84.1781 115.501 83.926 115.641 83.6854C115.781 83.4415 115.843 82.6106 115.482 82.4886C115.121 82.3667 114.234 83.487 113.604 83.8334C112.975 84.1813 110.234 85.7423 108.868 86.4838C107.501 87.2252 103.806 89.4968 103.469 89.6285C103.134 89.7586 101.491 90.5634 100.508 91.0464C99.5241 91.5293 96.7884 93.2578 96.2591 93.5017C95.7281 93.7439 94.0284 94.8252 93.4683 95.048C92.9098 95.2724 91.1988 96.0057 90.9155 96.1602C90.6322 96.313 89.41 96.939 88.8305 97.2106C88.2526 97.4821 86.0867 98.2382 85.4456 98.4773C84.8046 98.7179 82.8167 99.5049 82.4363 99.6594C82.0559 99.8155 80.1668 99.3114 80.0163 99.2578C79.8641 99.2025 79.4303 99.383 79.6504 99.4578C79.8722 99.5325 80.2688 99.9212 79.9823 100.141L79.8722 100.157L79.0563 100.292C78.1353 100.381 77.2741 100.44 77.1413 100.42C77.007 100.401 76.1199 100.167 75.4627 99.9846C74.8054 99.8025 72.9924 99.2594 73.075 98.5488L72.2219 98.0756L71.699 97.7862C71.3105 97.1602 71.1567 96.7017 71.3575 96.7699C71.5566 96.835 72.23 96.8854 72.251 96.6821C72.2704 96.4773 72.1701 95.9504 71.9807 95.9683L71.9143 96.0187L71.474 96.3456C70.9835 96.183 70.0446 95.5504 69.3874 94.9407L68.9244 94.3179L68.7545 94.0886C68.8791 93.6789 68.7707 93.2789 68.5117 93.1992C68.2543 93.1195 68.6525 92.5244 68.6509 92.4594C68.6492 92.396 68.073 92.0399 67.3947 91.674L67.4902 90.9602C67.5501 90.5147 67.3963 90.1683 66.9592 89.8805L66.6355 89.6675C66.2097 89.2968 66.2356 88.9179 66.6954 88.8269C67.1551 88.7358 68.1944 88.113 68.3773 87.861C68.5618 87.609 69.3227 87.1439 69.8083 87.222L70.0657 87.1C70.493 86.8968 70.7844 86.513 71.1761 86.248L71.4319 86.074C71.78 85.9553 72.7383 85.7439 73.5606 85.6057L73.6173 84.4773L73.6286 84.2496C73.6237 84.0269 73.8471 83.9586 74.1272 84.0968C74.4056 84.235 75.1713 83.835 75.0774 83.2171L76.1458 83.2203C76.3239 83.222 76.5586 82.9098 76.6638 82.7065L76.714 82.6073C76.5699 82.4268 76.3854 82.3293 76.3028 82.3895C76.2219 82.4496 75.8172 82.3813 75.9515 81.8366L76.1134 81.5033C76.1927 81.3439 76.3546 81.1553 76.7383 81.3716L77.0167 81.5277C77.4764 81.4789 78.4655 81.0675 79.215 80.6138L79.1842 79.8529L79.1777 79.7016C79.1842 79.5309 79.3105 79.3081 79.461 79.2073C79.6116 79.1049 80.0907 78.9748 80.1102 79.2106L80.2041 79.4382C80.2559 79.5667 80.4453 79.7325 80.5861 79.7423C80.7383 79.752 81.028 79.6122 81.0458 79.5114L81.1365 78.9894C81.5412 78.552 81.9005 78.1 81.9378 77.9846L81.9394 77.8724L81.9426 77.3504C82.514 77.0724 83.113 76.7878 83.2749 76.7163C83.4367 76.6464 84.06 76.5504 84.2834 76.5439C84.5068 76.5374 84.4258 76.0512 84.2882 75.9699C84.1522 75.8903 83.6407 75.2252 84.0211 74.9602C84.4015 74.6968 85.8811 74.7781 86.0154 74.4789C86.1514 74.1797 87.3866 73.6659 87.6893 73.3716L88.0422 73.1716C88.4841 72.9212 88.5521 72.6805 88.094 72.3829C88.0681 72.3667 88.2769 71.9667 88.4566 71.9049L88.9551 71.739C89.601 71.6187 90.1676 71.6838 90.2162 71.8838C90.2647 72.0838 90.6112 72.1374 90.875 71.5553L90.3343 70.9927L90.0592 70.7065C90.4962 70.7358 91.4497 70.4529 92.1781 70.0805L92.4128 69.4642L92.4679 69.3179C92.0761 69.0447 91.9224 68.7293 92.1263 68.6171C92.3287 68.5049 92.7722 68.0203 92.4501 67.9065L92.34 67.965L91.6456 68.3407C90.9042 68.7732 90.1012 69.3651 89.8617 69.6561C89.6221 69.9472 88.6104 70.3147 88.5553 70.1911C88.5003 70.0675 88.1684 69.8171 87.9936 70.0398C87.8188 70.2626 87.3364 70.7439 87.2538 70.6854C87.1713 70.6268 87.202 70.8545 87.4983 71.313C87.7945 71.7732 86.0154 72.1325 86.0867 71.9618C86.1595 71.7878 86.3085 71.2366 86.2032 71.2496C86.0964 71.2642 84.9244 71.8659 83.6958 72.5342C82.4671 73.2025 78.2599 75.6203 77.0507 76.3878L75.8803 76.9943L74.8313 77.5358C73.7549 78.209 72.1377 79.1342 71.236 79.5911L70.5723 80.235L69.9022 80.8838C68.9374 81.4399 67.733 82.0886 67.2263 82.326C66.7197 82.5602 65.1122 83.596 64.4744 83.8756C63.835 84.1553 61.2288 85.7602 59.8755 86.539L58.6614 87.2512L58.0835 87.5927C57.4651 87.7195 56.536 88.3147 56.0196 88.913L55.5695 88.9033L54.1855 88.8708C53.2272 89.5716 51.8755 90.3439 51.1843 90.5927C50.4931 90.8399 48.5441 92.183 47.937 92.3147C47.33 92.4464 45.9799 93.8821 45.4813 94.222C44.9828 94.5634 43.0402 94.9293 42.7618 95.0643L42.6355 95.2529L42.1596 95.9683C41.2418 96.3082 40.0099 96.7521 39.4207 96.9569C38.8314 97.1602 37.1236 98.1976 36.6898 98.4415L36.2738 98.6366C36.0423 98.7456 35.7477 98.7748 35.5356 98.9017C34.8573 99.3049 34.2713 99.9423 33.5251 100.102L32.7724 100.266C32.0552 100.563 30.8233 101.038 30.035 101.323C29.2483 101.609 26.8735 101.329 26.7003 101.463C26.5255 101.598 25.7404 101.861 25.3956 101.713C25.0492 101.562 23.7493 101.107 23.2782 100.879C22.8072 100.65 20.8905 101.711 19.7687 101.949L18.6761 101.998L17.7631 102.04C16.9181 101.786 15.908 101.105 15.5211 100.523L15.6344 100.118L15.8303 99.4106C16.0423 98.6301 16.2333 97.6968 16.256 97.3358C16.2787 96.9732 15.0646 96.513 14.9416 96.4415C14.8185 96.3699 14.2584 96.126 14.0075 95.9927C13.7534 95.8594 13.5964 94.9244 13.5996 94.6025C13.6028 94.2821 13.4895 93.4334 13.3503 93.3602L13.3001 93.3699L12.8598 93.4561C12.3774 93.5634 12.0974 93.3976 12.235 93.0886L11.8157 92.7342L11.3754 92.3651C11.1747 91.7488 10.5611 90.1586 10.0091 88.8317L9.4361 87.6512L9.237 87.2431C8.83392 86.8643 8.29001 86.274 8.02777 85.9309C7.76553 85.5895 7.06622 84.2675 6.95776 83.7829L6.81207 83.3504C6.68743 82.9764 6.29406 82.7147 6.37338 82.2252L6.43004 81.8789C6.10629 81.4577 5.77443 81.009 5.69349 80.8821L5.73073 80.7992L5.93955 80.3472C5.96869 79.8171 5.96869 79.1455 5.93631 78.8529C5.90556 78.5602 6.44622 77.209 6.75055 76.1781L7.64412 75.4707C7.80762 75.3423 7.58423 74.9 7.74448 74.7488L7.99539 74.5081C8.42437 74.3504 8.71413 74.1667 8.63805 74.0968C8.56196 74.0268 8.59596 73.8236 8.88086 73.7992C9.16577 73.7748 9.41182 72.7813 9.60607 72.4041C9.80032 72.0301 10.0658 71.3716 9.8667 71.0707L10.2795 70.8561L10.5288 70.7277C10.579 70.5163 10.7295 70.2691 10.8622 70.1764L10.9885 70.0984L11.4401 69.8187C11.1714 69.4545 11.356 69.0268 11.8497 68.8707C12.345 68.7146 12.8096 67.4496 12.9569 67.087C13.1042 66.7228 14.1613 66.1146 14.5207 65.9943L14.0852 65.6317C14.0027 65.5634 14.1273 65.1829 14.1726 65.1813L15.1245 65.1358C15.2572 64.5065 15.6344 63.6333 15.9662 63.1976C16.2981 62.7618 16.9456 61.4447 17.1204 61.5098C17.2953 61.5748 17.9832 61.4577 18.3313 61.1325C18.6793 60.8057 19.5373 59.752 19.3365 59.635C19.1358 59.5163 18.3912 59.2122 18.3102 59.326C18.2309 59.4398 17.7356 59.565 17.5429 59.1244L17.3131 59.0333L17.0201 58.9146C16.5895 58.9602 15.908 59.0512 15.5033 59.1195C15.1002 59.1862 13.6611 58.6106 12.9683 58.5683C12.2754 58.526 10.1694 59.048 9.82623 59.139C9.48143 59.2317 8.56844 58.1341 9.31146 57.2041L8.37742 56.165L8.17508 55.9407C8.27059 55.4984 8.16699 55.1163 7.94521 55.0967C7.72506 55.074 7.16496 54.978 7.12287 54.9228C7.08078 54.8675 7.03708 54.5325 7.03222 54.3016C7.02736 54.0724 7.06136 53.2577 7.09374 53.0024C7.12449 52.7439 6.30701 52.1699 6.31348 51.8171L6.11438 51.6805C5.83109 51.487 5.34222 51.5081 4.96019 51.3911L4.64615 51.2984C4.26736 51.1114 3.98245 50.4512 4.01321 49.8285C4.04235 49.2057 2.79427 47.7683 2.75866 47.6626L2.80722 47.6106L3.69755 46.6447C2.73924 46.1829 1.5203 45.4138 0.990957 44.9358L0.921351 44.3602L0.837172 43.6626C0.871166 42.8577 0.778898 42.2415 0.631589 42.2951C0.482662 42.3488 0.133008 42.2252 0.102251 41.9293L0.217182 41.8805C0.573313 41.7244 1.60933 41.7471 0.267368 41.4593C0.205854 41.4463 0.116822 41.391 0.110346 41.3488C-0.0401996 40.3162 -0.15028 39.2772 0.578168 38.3471C0.731952 38.1504 1.10751 38.0805 1.3309 37.9097C1.60123 37.7032 2.07716 37.3097 2.02212 37.2431C1.39242 36.4886 2.4948 36.991 2.56926 36.7195C2.67124 36.3471 2.81532 35.9325 3.11155 35.6593C3.65546 35.1618 4.29811 34.7276 4.94562 34.313L5.34222 34.0593C5.56561 33.6902 6.33777 32.7406 7.05974 31.952L8.37581 32.1406L8.4875 32.1569C8.64938 31.9894 8.96342 31.6414 9.18519 31.3862C9.40697 31.1292 10.2309 30.7227 10.3556 30.4463C10.477 30.1715 11.7364 30.1748 12.1378 29.9423C12.5409 29.7081 13.1706 28.9309 13.5866 29.2837L14.0108 28.7374L14.0399 28.7C13.7259 28.4479 13.7501 28.2414 14.0949 28.2414C14.4414 28.2414 15.1714 27.9797 15.0889 27.661L15.1811 27.4886L15.4369 27.0154C16.0067 27.0479 16.4988 26.8984 16.5296 26.6837C16.5603 26.4707 17.1657 25.9975 17.5656 25.7927C17.967 25.5878 19.4223 25.3049 19.8788 25.1845C20.3369 25.0642 21.1981 24.2707 21.4183 24.2154C21.6384 24.1634 22.3572 24.0902 22.3474 23.7683L22.3733 23.5455L22.3847 23.4431C22.4689 23.3341 23.1924 23.2024 23.9921 23.1504V23.0756L23.9954 22.3276C24.7141 22.2057 25.742 21.8268 26.2778 21.4837L26.7975 21.2057L27.118 21.0333C27.5534 21.0398 28.2106 20.8837 28.5781 20.6853L28.9359 20.526C29.3519 20.3406 29.789 20.1829 30.192 19.9813C30.5465 19.8057 30.8476 19.5536 31.2119 19.3975C31.445 19.2967 31.7493 19.3065 32.0229 19.2707C32.8306 19.1683 33.5656 19.0284 33.9136 18.2772C34.056 17.9731 34.4704 17.7162 34.833 17.5325C34.982 17.4561 35.2005 18.0073 35.6068 17.604L35.9338 17.2805C36.4 17.0024 37.1107 16.9829 37.5121 17.2366L37.8359 16.765C37.9298 16.6301 38.0382 16.5032 38.1353 16.3683L38.2033 16.274C38.2697 16.1634 38.6177 16.0626 38.9771 16.0463C39.3381 16.0317 40.2495 15.4821 40.5344 15.5487C40.8193 15.6154 41.4457 15.0609 41.7323 15.1406L42.0058 14.9813C42.1094 14.9211 42.3377 14.9553 42.3879 14.8886L43.2717 13.6821C44.897 13.0447 46.3911 12.4268 46.5918 12.3097C46.7926 12.1927 47.7331 11.9829 48.264 11.7943C48.7966 11.6057 50.0123 10.7829 50.2438 10.9097C50.4736 11.0366 51.2976 11.3032 51.6942 10.8821L52.1815 10.7162L52.6606 10.552C53.3615 10.6235 53.8456 10.5487 53.7355 10.3861C53.6238 10.2235 53.7517 9.71623 54.3296 9.7081L54.5983 9.53411L54.9625 9.29834C55.2005 9.44793 55.8933 9.29672 56.5003 8.96013L57.0588 8.66582L57.232 8.57476C57.5412 8.62517 57.682 8.77801 57.5428 8.9146L57.4522 9.05281C57.4392 9.07395 57.6351 9.24468 57.716 9.23493L57.9119 9.21541C58.1029 9.13737 58.3781 8.66582 58.5238 8.16501L59.1843 7.96826C60.3255 7.62517 61.6513 7.61216 62.5173 6.75037C62.5756 6.69183 62.799 6.72923 62.9431 6.74549L63.4368 6.79752C63.9775 6.86419 64.5975 6.81216 64.8144 6.68208C65.0329 6.552 66.0689 6.20728 66.6209 6.05444C67.1729 5.90159 68.5165 5.34061 68.7156 5.47557C68.9147 5.61216 69.5396 5.90647 69.5639 5.76175C69.5881 5.61704 70.1774 5.4398 70.7051 5.41053C71.2344 5.37964 72.9115 4.86094 73.3583 4.72761C73.8034 4.59427 74.9285 5.21541 75.0677 5.19752C75.2069 5.18126 76.2089 5.68045 76.96 6.14387C77.7111 6.60728 80.9115 5.84631 81.8779 5.62354L82.9025 5.85118L83.6844 6.02679C84.6751 5.82842 85.6982 5.64143 85.9556 5.61053C86.2129 5.57964 87.1389 5.89021 87.3947 5.77476C87.6504 5.65769 88.3546 5.5959 88.3594 5.91135C88.3627 6.2268 89.5169 5.84468 89.7046 5.80078L89.8163 5.85281L90.5415 6.1894C91.2231 6.66907 92.0454 7.29671 92.3643 7.58126C92.6864 7.86744 93.7791 8.32761 93.6771 8.42517C93.5751 8.52436 93.6334 9.10972 93.9734 9.57151L94.2566 10.0024L94.854 10.9195C95.9434 11.674 96.6476 12.4447 96.4209 12.6301C96.1943 12.8154 95.8382 13.4967 96.1781 13.6967L96.5181 13.7796L96.6022 13.8024C96.8515 13.4626 97.3663 13.4235 97.7467 13.713L98.0413 14.0122C98.1417 14.1146 98.0753 14.326 98.0915 14.487C98.1271 14.8317 96.9616 14.3195 97.5314 14.9829C97.9037 15.4154 97.546 15.5796 97.3064 15.8658L97.0814 16.1325C96.913 16.5536 97.0361 17.0756 97.355 17.2918C97.6739 17.5081 97.8163 18.5601 97.9037 18.6902C97.9895 18.8219 98.8782 20.0414 99.6585 21.1114L99.4723 22.3292C99.372 22.991 99.4302 23.6154 100.24 24.0463L100.497 24.1829C100.638 24.4935 100.843 24.9585 100.953 25.2171C101.065 25.474 102.302 25.8333 102.731 25.9536L102.796 26.1471C102.995 26.7374 103.293 26.7504 103.825 26.4398C103.888 26.4024 104.092 26.4805 104.194 26.5439L104.366 26.6528C104.584 26.8447 104.623 27.061 104.45 27.1341C104.278 27.2073 103.981 27.6788 104.173 28.0187L104.28 28.2447L104.403 28.5016C104.516 28.791 104.638 29.1227 104.675 29.2382C104.711 29.3553 104.264 30.3992 103.782 31.5016L102.702 32.2691L102.156 32.6577C101.904 33.4203 101.569 34.2528 101.413 34.5097C101.256 34.7667 100.032 35.6902 99.597 36.2561L99.0563 36.4024C98.1352 36.6496 99.1308 36.8821 98.9414 37.0545C98.6953 37.274 98.4412 37.4902 98.1676 37.687L97.4796 38.1748C96.722 38.7097 95.9045 39.391 95.6666 39.6886C95.427 39.9845 94.4379 40.7049 94.5351 40.9976C94.6322 41.2886 93.1947 41.7715 92.6686 42.1504L92.2332 42.5325L91.7411 42.965C90.9916 43.565 90.7148 44.0057 91.1243 43.9488C91.5339 43.8902 93.2481 43.1081 94.5561 42.5179L95.856 42.1732L96.5682 41.9829C96.5262 41.4349 96.5213 40.8935 96.5569 40.7813L96.633 40.7569C96.7593 40.7211 97.0021 40.7049 97.0458 40.7602L97.1915 40.9423C97.3355 41.2626 97.6706 41.2821 97.9361 40.9878L98.1514 40.752C98.2615 40.6301 98.3975 40.3976 98.4881 40.4057L99.5662 40.5276C100.104 39.8675 100.727 39.0821 100.95 38.7797C101.172 38.4789 102.812 38.3065 103.412 37.9618L104.113 37.8675C104.427 37.8268 104.733 37.6333 104.983 37.4545L105.038 37.4171C104.877 37.1699 104.907 36.9732 105.101 36.9797C105.297 36.9845 106.017 36.8821 106.158 36.7341C106.299 36.5862 106.873 35.8593 107.043 35.5293L107.722 35.6756C108.05 35.7455 108.675 35.2349 109.004 34.8837L109.285 34.5797C109.666 34.3601 110.054 34.1553 110.148 34.1244C110.24 34.0967 110.666 34.0691 111.006 34.0073C111.346 33.9471 112.457 33.391 112.839 33.0252L113.091 32.6398C113.36 32.2317 113.798 33.3358 113.91 32.5618C114.027 31.7536 114.488 32.6057 114.64 32.4447L114.969 32.1C115.22 32.3162 115.474 32.2496 115.531 31.9504L115.692 31.7341L115.806 31.5878C116.092 31.5162 116.745 31.4203 117.256 31.3764C117.768 31.3309 119.013 30.4187 119.344 30.0642L119.702 29.7927L119.778 29.7341C120.117 29.8691 120.421 29.8333 120.455 29.6593C120.489 29.4837 120.758 28.8658 120.898 29.0837C121.038 29.3 121.541 29.5488 121.842 29.3601C122.143 29.1732 122.677 28.8106 122.77 28.4496L123.403 28.4967L123.832 28.5309C124.309 28.3049 124.887 27.8512 125.117 27.5195L125.632 27.3845C125.887 27.3162 126.007 27.1179 126.278 27.3764L126.381 27.4756C126.642 27.4853 127.173 27.204 127.56 26.8512L128.183 26.7195L128.746 26.6008C129.272 26.1927 130.292 25.6431 131.011 25.3764C131.73 25.1097 134.3 24.5797 135.03 24.4561L135.56 23.9862L136.133 23.4772C137.034 23.3146 137.897 23.4561 138.051 23.791C138.205 24.126 138.65 24.9845 138.707 24.9715C138.765 24.9569 138.873 24.7634 138.821 24.5683C138.77 24.3731 138.559 23.6252 138.516 23.3292L139.488 22.7829C140.286 22.3309 141.575 22.5845 141.973 21.6203C141.991 21.5797 142.315 21.5553 142.397 21.6154C143.111 22.1309 143.011 22.487 142.051 22.9585L142.02 22.9731C142.02 23.0333 142.792 22.9748 143.734 22.8447L144.155 22.7032C144.589 22.5569 145.115 22.4593 145.569 22.5146L146.323 22.604C146.472 22.1146 146.694 21.8528 146.815 22.0252C146.936 22.1959 147.441 22.6821 147.513 22.5065C147.582 22.3292 147.657 21.4626 147.671 20.7748L148.957 19.8122L149.172 19.6528C149.392 19.4658 149.669 19.5894 149.789 19.9292C149.908 20.2675 150.961 20.8853 151.556 20.5813C152.15 20.2788 154.091 20.0317 154.091 19.804C154.091 19.5764 153.941 18.913 153.758 19.2187C153.575 19.5244 152.544 19.4658 152.463 19.3081L152.482 19.1553C152.515 18.9195 152.215 18.2821 153.076 18.7927L153.216 18.8756C153.915 18.404 154.553 18.274 154.635 18.5862L154.655 18.7943L154.677 19.0252C154.669 19.3195 154.825 19.5601 155.025 19.5601C155.226 19.5601 155.883 19.2479 156.023 18.8658C156.16 18.4853 156.847 17.4154 157.109 17.6935C157.373 17.9715 158.386 18.4609 158.755 18.1455L159.105 17.9862L159.568 17.7731C160.131 17.6203 160.939 17.4479 161.361 17.391L161.772 17.4691C162.347 17.5813 162.889 17.4528 163.339 17.1227C163.516 16.9927 163.686 16.8593 163.859 16.7276L165.131 15.9049L165.381 15.8203C165.653 15.726 166.517 15.4772 167.301 15.2675C168.086 15.0577 170.29 14.5162 170.901 14.4398C171.511 14.3634 173.373 14.3032 173.666 14.3634C173.96 14.4235 174.02 15.2105 173.543 15.3878C173.063 15.5666 172.787 16.7422 173.029 16.5731C173.272 16.404 174.142 16.3878 174.58 16.8008L175.029 17.087L175.438 17.3488C176.026 17.4935 176.911 17.9179 177.408 18.2918L176.592 18.7569L176.429 18.8496C176.505 19.487 176.728 19.804 176.924 19.5536C177.118 19.3032 177.617 18.9439 177.541 19.3829C177.465 19.8219 176.921 20.5471 177.322 20.6008C177.725 20.6561 179.011 20.4772 179.477 20.3845C179.943 20.2918 180.27 19.2577 180.473 19.4236C180.677 19.5894 181.322 19.6658 181.648 19.3796C181.973 19.0935 183.212 18.5927 183.511 18.5796C183.812 18.565 184.388 17.9959 184.719 18.0756L185.023 18.1227L185.214 18.1536C185.434 18.1455 185.557 18.0366 185.488 17.9097C185.416 17.7845 185.802 17.4658 186.316 17.2154C186.831 16.9634 188.497 16.3227 188.796 16.1943C189.096 16.0658 189.335 15.2691 189.397 15.2057C189.458 15.1422 189.789 15.0918 189.983 15.2349L190.14 15.3796L190.226 15.4593C190.299 15.5943 190.682 15.2235 191.079 14.6382L191.469 14.1309C191.56 14.0154 191.814 13.8951 191.966 13.9146L192.785 14.0219C193.353 13.5845 194.064 13.0447 194.368 12.8235L194.747 12.8349L195.263 12.8512C195.731 12.6707 196.236 12.4544 196.385 12.3699C196.534 12.287 196.579 11.7422 196.939 11.5016L197.313 11.4154C197.78 11.3065 198.297 11.3244 198.794 11.3113C199.137 11.3032 198.52 10.3504 199.44 10.887C199.509 10.9276 199.953 10.5471 200.218 10.3569C200.396 10.23 200.547 10.0691 200.744 9.96988C201.148 9.76663 201.593 9.61541 201.988 9.40403L202.336 9.21541C202.744 9.22842 203.402 8.97476 203.799 8.64956L204.16 8.35525L204.521 8.05932C204.827 7.80891 205.272 7.61704 205.512 7.63167C205.75 7.64468 206.128 7.46094 205.916 7.19427L206.344 6.90809C206.839 6.57639 207.059 6.87883 207.433 7.0398L207.615 7.11948C207.992 6.90972 208.62 6.49021 209.005 6.18777L209.554 6.63005C209.756 6.79427 209.963 6.57476 209.704 6.10159L209.596 5.90484C209.675 5.79915 210.255 5.49021 210.886 5.21704L211.532 5.13899C211.658 5.12435 211.682 4.56663 212.285 4.53736L212.539 4.52598C212.827 4.5276 213.64 4.45443 214.347 4.36175C215.053 4.26907 216.097 2.67557 216.617 2.56663C217.133 2.45931 218.935 2.09508 219.461 1.78939C219.987 1.4837 220.735 1.13573 220.876 1.25118C221.018 1.36663 221.575 1.60728 221.701 1.44955L221.667 1.35687L221.593 1.1585C221.426 0.96175 221.51 0.685326 221.777 0.543863C222.044 0.402399 222.918 0.278822 223.663 0.210529L224.304 0.108091L224.686 0.046302C225.047 -0.150446 226.328 0.298334 227.535 1.04142L228.636 1.73573L228.822 1.85118C228.992 2.01703 229.496 2.27557 229.941 2.42679C230.386 2.57964 231.705 2.21703 232.406 1.98614L233.075 2.27557C233.818 2.5959 234.535 2.94061 235.436 2.81378C235.671 2.78126 237.604 3.84468 237.905 3.98777C238.135 4.09834 238.514 3.98614 238.768 4.08045C239.077 4.19265 239.304 4.53248 239.606 4.57313C240.333 4.66744 240.073 5.09021 240.056 5.37964L240.047 5.57476C239.83 5.78127 239.555 6.20403 239.433 6.51297C239.313 6.82354 240.477 7.80566 240.277 7.92923C240.076 8.05119 239.739 8.7081 239.907 9.15525C240.076 9.60241 241.364 10.3618 241.198 10.6382C241.031 10.913 240.702 11.7244 240.837 11.8333C240.969 11.9422 241.209 12.3309 241.141 12.5097C241.071 12.6886 240.892 13.217 240.798 13.3016C240.706 13.3861 240.231 13.4235 240.06 13.6431L240.124 13.726L240.456 14.1488C240.884 14.5764 241.29 14.8837 241.36 14.8333C241.428 14.7845 241.826 14.6658 241.805 14.8918C241.785 15.1162 241.652 15.6512 241.601 15.6983C241.547 15.7439 241.492 16.1195 241.606 16.4284C241.719 16.7374 241.965 18.1488 242.145 18.8577L242.637 19.4561L242.905 19.7813C242.784 20.3634 243.187 21.0317 243.799 21.2691L244.33 21.4984L244.453 21.5536C244.911 21.939 245.102 22.3601 244.877 22.4886C244.652 22.6154 244.532 23.0577 244.568 23.4008C244.604 23.7439 243.801 25.0561 243.571 25.7585L242.473 25.7601H242.226C241.894 26.126 242.015 26.6447 242.496 26.9097L242.876 27.0951C243.054 27.1829 243.046 27.1585 243.253 26.6886C243.336 26.5016 243.516 26.2138 243.676 26.2008C244.615 26.1309 245.207 24.8723 246.381 25.6707L248.406 24.5358L248.489 24.4577C248.578 24.3731 248.971 24.2414 249.364 24.1634C249.754 24.0853 250.688 23.5439 250.839 23.3943C250.99 23.2431 252.395 23.1943 252.88 22.8203L253.306 22.4918L255.169 22.1341L255.501 22.5309C255.841 22.3032 256.495 21.8431 256.955 21.5097C257.414 21.178 258.854 19.8935 259.061 19.3309L259.903 19.8853C260.411 20.2203 261.207 19.7065 261.701 20.2561L261.769 20.3309C262.112 20.2366 262.761 19.8414 263.213 19.4528L263.883 19.2284C265.874 18.565 266.238 18.3097 267.143 18.7081L267.959 19.0691C268.89 19.0236 269.554 18.8219 269.437 18.6187C269.319 18.4154 269.57 17.7065 270.172 17.352C270.776 16.9959 273.031 16.2105 273.248 16.1504L273.497 16.3048C273.811 16.4983 274.208 16.5146 274.24 16.0707C274.276 15.5927 274.74 15.6073 274.999 15.7097L276.079 16.1341C277.222 15.9227 278.153 15.487 278.151 15.165C278.148 14.8447 279.728 14.474 280.714 14.2967L281.465 13.9406C281.919 13.7227 282.488 13.6496 283.014 13.5504L283.451 13.4691C283.823 13.1325 284.234 13.0105 284.365 13.1959C284.497 13.3796 284.979 13.8301 285.134 13.7715L285.215 13.7081L285.635 13.3764C286.073 12.9959 286.815 12.9048 287.283 13.1731L287.582 12.5422C287.626 12.4496 288.234 12.5032 288.569 12.5504L288.762 12.5764C288.96 12.5861 289.461 12.4414 289.877 12.2577C290.295 12.074 292 12.1146 292.828 12.2658L293.418 11.6593C293.628 11.4414 293.771 11.3845 294.06 11.6203L294.183 11.7179C294.51 11.6561 295.043 11.4918 295.368 11.3536C295.694 11.2154 297.248 11.1731 297.869 10.9471L298.03 11.074L298.734 11.6284C299.227 11.2382 300.069 10.7553 300.603 10.5536L301.108 10.4008C301.183 10.3796 301.314 10.4609 301.41 10.5081C302.412 10.9975 302.484 11.0544 302.892 10.6935L303.41 10.2366C303.909 10.4642 304.508 10.7097 304.741 10.7829C304.972 10.8561 305.515 10.1992 305.693 9.98127L305.855 9.98615C306.429 10.0008 306.162 10.4057 306.232 10.6577L306.263 10.765C306.308 10.8561 307.075 10.5959 307.964 10.1878L308.793 9.84468C309.722 9.46094 309.367 9.61216 309.851 10.4707L310.305 11.2723C309.746 11.2496 309.588 11.4674 309.953 11.7585L310.199 11.7146C310.617 11.6414 311.213 11.0805 311.307 11.1439C311.766 11.4577 312.299 11.552 312.662 11.2853C313.11 10.9536 313.204 11.2658 313.478 11.3748L313.584 11.4187C313.824 11.2658 313.759 11.0024 313.442 10.8349L313.986 10.7032C314.123 10.6691 314.465 10.8837 314.53 11.0366C314.635 11.2918 314.658 11.5048 314.981 11.1878L315.051 11.1179C315.019 10.8674 315.658 10.8284 316.472 11.0317C317.286 11.2349 318.73 12.5992 318.484 12.7585C318.237 12.9162 317.973 13.6105 318.258 13.9081C318.543 14.204 319.554 14.8918 319.894 14.7943C320.233 14.7 321.125 14.3097 321.125 14.1422C321.125 13.9748 321.662 13.63 322.319 13.7357L321.613 14.4544L321.262 14.8154C321.758 15.2772 322.331 15.7569 322.533 15.8821C322.735 16.0089 321.984 16.7504 321.821 16.617C321.657 16.4837 321.225 16.2057 321.189 16.2675C321.154 16.3292 321.131 16.6447 321.133 16.9634C321.133 17.2837 322.646 17.7374 323.255 18.0496L322.551 18.7195L322.374 18.8886C322.729 19.417 323.232 19.9813 323.496 20.139C323.757 20.2951 323.909 20.9878 324.147 21.1504C324.385 21.3114 323.781 21.9927 323.664 22.1341C323.546 22.2756 323.585 22.7585 323.729 22.6772L323.844 22.591L324.008 22.4723C324.237 22.2788 324.576 22.2983 324.757 22.513C324.94 22.7276 325.136 23.4544 324.87 23.7423C324.605 24.0317 323.347 24.2788 322.908 24.2805C322.468 24.2805 321.157 24.487 321.157 24.7406C321.157 24.991 320.953 25.6414 320.702 25.5634L320.707 25.5439L320.814 25.0447C320.867 24.4691 320.697 23.9959 320.435 23.9959C320.174 23.9959 319.516 24.0366 319.528 24.0853C319.543 24.1374 319.681 24.5049 319.784 24.7715C319.886 25.0382 318.573 25.5862 318.777 25.3943L318.785 25.287C318.808 24.965 318.917 24.4479 318.732 24.3553C318.175 24.0772 318.204 24.5715 317.974 24.8333C317.672 25.1764 317.121 25.3927 316.636 25.5975C316.45 25.6772 316.145 25.591 315.899 25.5569L315.647 25.5211C315.391 25.461 314.536 25.7032 313.749 26.0626L313.097 26.4463C312.824 26.6089 311.975 26.7601 312.734 27.287L312.739 27.2902C312.624 27.4024 312.009 27.6333 311.373 27.8008C310.735 27.9699 309.558 29.1894 309.426 29.2398C309.291 29.2919 308.54 29.1504 307.833 28.991L307.566 29.6236L307.297 30.2561C306.735 30.1455 306.206 30.1894 306.123 30.3536C306.039 30.5162 305.625 31.0106 305.484 31.0935L305.377 31.074C304.038 30.8382 303.032 31.391 302.509 32.2349L302.18 32.765C301.641 33.0219 301.138 33.1244 301.06 32.9927C300.981 32.861 300.03 32.7309 299.112 32.9862L298.297 33.2382L298.14 33.287C298.021 33.4349 297.636 33.9114 297.283 34.3488C296.93 34.7829 296.552 35.8919 296.628 35.5667C296.705 35.2398 296.267 34.4919 295.925 34.6317C295.582 34.7715 294.996 35.8723 294.86 35.5325L294.645 35.4317C294.3 35.2707 293.992 35.3699 293.934 35.7927C293.918 35.9097 293.541 36.0772 293.325 36.0805L292.001 36.0919C291.153 36.8788 289.711 37.8626 288.796 38.2756L287.846 38.4268C287.815 38.4317 287.776 38.7179 287.841 38.7553C288.37 39.048 288.187 39.2821 287.792 39.5309C287.619 39.6415 287.504 39.8415 287.318 39.8935L287.096 39.9553C286.81 39.926 286.637 39.6512 286.708 39.3423L286.781 39.3406L287.423 39.3325C287.331 38.9488 287.04 38.7195 286.776 38.8268C286.514 38.9309 285.787 39.3975 285.625 39.5244C285.461 39.6528 284.806 39.3845 284.646 39.4447C284.485 39.5032 283.205 40.1959 282.14 40.7927L281.186 41.3504L280.869 41.5374C280.519 41.4512 280.115 41.4658 279.969 41.5667C279.823 41.6707 279.768 41.9341 280.16 41.9488C280.55 41.9602 281.62 42.0252 281.733 42.2122C281.845 42.3992 282.017 43.0984 281.764 43.1667L281.563 43.2577L281.38 43.3406C281.188 43.4789 280.969 43.4886 280.895 43.3602C280.82 43.2333 280.252 43.2219 279.843 43.7016L279.54 44.1423C279.465 44.2512 279.601 44.4593 279.648 44.6187L279.687 44.7471C279.737 44.8854 279.582 45.0106 279.338 45.0268L279.197 44.9471C278.863 44.7602 278.46 44.6301 278.193 44.6789L278.054 44.7065C277.89 44.6935 277.486 44.6366 277.155 44.578C276.824 44.5179 276.34 43.687 275.71 43.5862L275.247 43.7309L274.308 44.0268C273.693 44.8024 273 45.113 272.765 44.7211L272.599 44.7244C272.306 44.7309 271.911 44.9309 271.755 45.1439L271.487 45.5179C271.329 45.9927 271.263 46.5748 271.339 46.8122L271.412 46.8106L271.851 46.8041C271.959 47.0756 271.985 47.4366 271.906 47.6057C271.83 47.7748 271.373 48.2106 271.168 48.0106C270.962 47.8106 270.604 47.1179 270.384 46.8366L269.941 46.8268L269.72 46.8203C269.664 46.6366 269.623 46.4317 269.63 46.365C269.636 46.2967 269.397 46.1504 269.087 46.1927L269.083 46.2447L269.003 47.2138C268.016 47.2821 267.368 47.5667 267.566 47.8463C267.765 48.1244 268.918 48.2756 268.995 48.5471C269.071 48.8171 269.057 49.6772 268.757 49.7439C268.456 49.8106 267.673 48.5797 267.2 48.0577L266.323 48.8187L266.127 48.9894C265.756 49.0984 265.586 49.2301 265.748 49.2821C265.91 49.3358 265.981 49.6431 265.562 49.8577C265.146 50.0724 265.669 51.152 265.358 51.3959L265.16 51.3553L264.72 51.261C264.166 50.9504 263.765 50.8528 263.831 51.0431C263.896 51.235 263.896 51.7797 263.679 51.8122C263.464 51.848 262.81 52.1618 263.009 52.3862C263.208 52.6089 263.399 53.3228 262.909 53.3813L262.684 53.248L262.412 53.087C262.386 52.6919 262.311 52.2398 262.245 52.0789C262.177 51.9195 262.336 51.1683 262.758 50.778C263.179 50.3894 262.925 49.1569 262.624 49.3211C262.321 49.4837 261.639 50.126 261.719 50.4171C261.798 50.7065 261.748 51.378 261.448 51.248C261.151 51.1195 259.501 52.1341 259.143 52.0528L258.833 51.9439L258.531 51.8415C258.164 51.7813 257.69 51.8122 257.476 51.9081C257.264 52.0024 257.113 52.8528 257.063 53.1992H257.005C256.084 53.2138 256.395 53.7992 256.239 54.1878L256.153 54.3959C255.828 54.5992 255.508 54.635 255.443 54.4772C255.378 54.3179 255.038 54.0789 254.828 54.2984C254.617 54.5195 253.848 55.0415 253.541 55.0154C253.232 54.9862 253.395 55.7358 253.491 55.8171C253.586 55.8984 253.682 56.2642 253.73 56.4821C253.779 56.7016 254.786 56.9943 255.015 57.1146C255.245 57.2333 255.386 57.8756 254.816 58.2463L254.248 57.5439L254.046 57.2951C253.588 57.1537 253.149 57.0415 253.071 57.0463C252.994 57.0512 252.336 57.1992 251.788 57.3553L251.878 57.9927L251.938 58.4057C251.635 58.2122 251.046 57.9813 250.627 57.8951L250.585 58.4008C250.567 58.6057 250.451 58.8203 250.306 58.9878L250.274 59.0285C249.988 58.9309 249.724 58.7049 249.69 58.5276C249.654 58.3504 249.913 57.7033 250.124 57.4447L250.363 57.2415C250.434 57.1797 250.692 57.2642 250.765 57.2041C250.894 57.0935 251.032 56.9163 251.009 56.7862C250.988 56.674 250.755 56.5244 250.599 56.5098L250.188 56.4707C249.652 56.4854 249.298 56.6854 249.398 56.9179C249.497 57.1488 248.788 57.4528 248.361 57.4285L247.969 57.3846C247.959 57.3829 247.988 57.2675 247.964 57.2138L247.658 56.526C246.901 56.3211 246.081 56.2024 245.842 56.2659L245.803 56.3748C245.758 56.5033 245.852 56.7293 245.983 56.8285L246.954 57.5618C247.279 58.2252 247.692 58.8707 247.875 58.9959L248.029 58.9813C248.168 58.9683 248.338 58.7943 248.393 58.6642L248.485 58.4398C248.555 57.9878 249.133 58.5585 249.769 59.7049L250.703 60.3276C251.012 60.5341 251.352 60.5374 251.48 60.1163L251.519 59.9862C251.645 59.8642 251.922 59.7 252.136 59.6187C252.349 59.539 253.008 59.5602 253.096 59.3683C253.183 59.1732 253.719 58.9602 254.088 59.3163C254.457 59.6756 255.147 60.5797 254.81 60.539C254.475 60.4984 253.646 61.2968 253.089 61.4756L252.665 61.7715L252.621 61.8024C252.432 61.7342 252.34 61.5537 252.416 61.4041C252.493 61.2545 252.536 60.8317 252.323 60.8317C252.11 60.8317 251.757 61.2675 251.826 61.8041L251.663 62.2073L251.508 62.5927C251.695 62.661 251.686 62.9033 251.487 63.1325C251.287 63.3634 250.425 63.6155 249.913 63.2968L249.528 63.3358C248.684 63.422 249.002 62.7504 248.615 62.5894C248.052 62.3569 248.032 62.3472 248.249 62.1781C248.654 61.8659 248.897 61.3748 249.732 61.8122L250.073 61.9911C250.334 61.3894 250.062 60.8854 249.47 60.8707C248.877 60.8577 247.449 61.4594 246.888 61.822L246.71 62.248L246.567 62.5943C246.812 63.0724 247.151 63.6268 247.321 63.8268C247.491 64.0252 246.761 64.5894 246.02 64.3846L245.342 64.1846L245.319 64.1797C245.149 63.3976 245.044 62.7439 245.084 62.7228L244.843 63.0561C244.463 63.5813 244.581 63.5781 245.17 63.7569C245.419 63.8317 245.686 64.113 245.97 63.9878L246.135 63.9163C246.166 63.6366 246.088 63.0854 245.962 62.6919C245.834 62.3 245.991 61.3325 245.706 61.461L245.494 61.4935L245.172 61.5439C245.083 62.2138 244.953 63.1195 244.884 63.5602C244.816 63.9992 244.869 64.7277 245.439 64.9195L245.853 65.0903C246.407 65.3228 246.379 65.3927 245.685 65.8073L245.585 65.8691C245.542 65.9976 245.458 66.2707 245.397 66.4772C245.337 66.6821 245.028 67.0707 244.824 67.0545C244.618 67.0366 243.822 67.2772 243.483 67.6236L242.928 67.5878L242.504 67.5634C242.35 67.8138 242.002 68.2106 241.733 68.4431C241.463 68.6756 240.382 68.9423 240.056 68.913C239.731 68.8805 239.336 68.2382 239.493 68.1504C239.652 68.0642 240.032 67.5911 239.726 67.4366L239.509 67.2984C239.197 67.0968 239.014 66.8529 239.37 66.5699L239.657 66.3439C240.081 66.2837 240.752 66.3211 241.146 66.4236C241.541 66.5276 242.326 65.4203 242.426 65.3179C242.527 65.2155 243.349 64.9211 243.814 64.7325L243.313 64.3309C243.166 64.2122 242.999 64.0984 242.818 64.0187L242.651 63.9455C242.421 63.9033 242.358 63.7634 242.515 63.6366C242.669 63.5098 243.088 63.0073 242.93 62.9407C242.771 62.8724 242.166 62.926 241.911 63.1992C241.657 63.4707 241.084 64.9992 240.706 65.0707C240.325 65.1423 239.208 65.2333 239.321 65.0642C239.433 64.8968 239.59 64.3016 239.548 64.0919L239.415 64.0382C239.278 63.9797 238.922 64.0463 238.857 64.1439L238.604 64.5276C238.397 64.9781 237.839 65.2529 237.363 65.1358L236.924 65.1146C236.822 65.1098 236.621 65.4366 236.6 65.622L236.583 65.7829C236.725 65.9715 236.599 66.0919 236.306 66.0512L236.105 65.9358L235.812 65.7667C235.543 65.5179 235.477 65.2415 235.665 65.1537C235.852 65.0642 236.163 64.4382 236.234 64.0382L236.115 63.7114L235.987 63.3716C236.157 63.0984 236.289 62.8252 236.281 62.7618C236.273 62.7 236.61 62.3553 236.984 62.0106C237.358 61.6642 239.135 60.687 239.686 60.3423C240.236 59.9976 241.745 59.1293 241.839 59.2008L241.821 59.2821L241.743 59.6415C241.631 60.0073 241.659 60.1846 241.803 60.0382C241.947 59.8886 242.669 59.6512 242.773 59.5911C242.876 59.5293 243.548 59.4317 244.035 59.5163L244.037 58.9146V58.2626C244.516 57.6772 245.008 57.1195 245.133 57.0219C245.258 56.9276 245.217 56.7927 245.099 56.8285C244.982 56.8642 244.359 56.8854 244.03 56.9211C243.702 56.9569 243.302 57.8089 242.991 57.9455L242.92 57.8854L242.075 57.1943Z" fill="#149BB0"/>
</svg>
