<svg width="18" height="17" viewBox="0 0 18 17" fill="none" xmlns="http://www.w3.org/2000/svg">
<path d="M4.39744 16.1056V5.30049H0.809161V16.1056H4.39781H4.39744ZM2.60405 3.82549C3.85509 3.82549 4.63395 2.99578 4.63395 1.95888C4.61054 0.898348 3.85509 0.0917969 2.62784 0.0917969C1.39975 0.0917969 0.597656 0.898349 0.597656 1.95878C0.597656 2.99568 1.37623 3.82539 2.58054 3.82539H2.60377L2.60405 3.82549ZM6.3836 16.1056H9.97159V10.0722C9.97159 9.7497 9.99501 9.42635 10.0898 9.196C10.3491 8.55051 10.9395 7.88234 11.931 7.88234C13.229 7.88234 13.7486 8.87311 13.7486 10.3258V16.1056H17.3365V9.9103C17.3365 6.59156 15.5665 5.04717 13.2058 5.04717C11.2703 5.04717 10.4203 6.12992 9.94799 6.86738H9.97188V5.30087H6.38379C6.43062 6.31452 6.38351 16.106 6.38351 16.106L6.3836 16.1056Z" fill="#FDFDFD"/>
</svg>
