<svg width="34" height="32" viewBox="0 0 34 32" fill="none" xmlns="http://www.w3.org/2000/svg">
<path d="M10.3333 10.0003H23.6667M10.3333 16.667H20.3333M27 1.66699C28.3261 1.66699 29.5979 2.19378 30.5355 3.13146C31.4732 4.06914 32 5.34091 32 6.66699V20.0003C32 21.3264 31.4732 22.5982 30.5355 23.5359C29.5979 24.4735 28.3261 25.0003 27 25.0003H18.6667L10.3333 30.0003V25.0003H7C5.67392 25.0003 4.40215 24.4735 3.46447 23.5359C2.52678 22.5982 2 21.3264 2 20.0003V6.66699C2 5.34091 2.52678 4.06914 3.46447 3.13146C4.40215 2.19378 5.67392 1.66699 7 1.66699H27Z" stroke="white" stroke-width="2.5" stroke-linecap="round" stroke-linejoin="round"/>
</svg>
