<svg width="22" height="16" viewBox="0 0 22 16" fill="none" xmlns="http://www.w3.org/2000/svg">
<path fill-rule="evenodd" clip-rule="evenodd" d="M3 0.25C2.27065 0.25 1.57118 0.539731 1.05546 1.05546C0.539731 1.57118 0.25 2.27065 0.25 3V13C0.25 13.7293 0.539731 14.4288 1.05546 14.9445C1.57118 15.4603 2.27065 15.75 3 15.75H19C19.7293 15.75 20.4288 15.4603 20.9445 14.9445C21.4603 14.4288 21.75 13.7293 21.75 13V3C21.75 2.27065 21.4603 1.57118 20.9445 1.05546C20.4288 0.539731 19.7293 0.25 19 0.25H3ZM6.43 4.386C6.26698 4.27962 6.06899 4.24079 5.87787 4.27771C5.68674 4.31464 5.51746 4.42442 5.4058 4.58387C5.29414 4.74331 5.24884 4.93992 5.27948 5.13215C5.31012 5.32438 5.4143 5.49717 5.57 5.614L10.57 9.114C10.696 9.2022 10.8462 9.24951 11 9.24951C11.1538 9.24951 11.304 9.2022 11.43 9.114L16.43 5.614C16.5142 5.55904 16.5865 5.48771 16.6426 5.40425C16.6987 5.32079 16.7374 5.2269 16.7565 5.12817C16.7756 5.02943 16.7746 4.92787 16.7536 4.82952C16.7327 4.73117 16.6921 4.63804 16.6345 4.55567C16.5768 4.4733 16.5031 4.40337 16.4179 4.35005C16.3326 4.29672 16.2375 4.26108 16.1382 4.24525C16.0389 4.22942 15.9374 4.23373 15.8398 4.25791C15.7422 4.28208 15.6504 4.32565 15.57 4.386L11 7.585L6.43 4.386Z" fill="white"/>
</svg>
