<svg width="128" height="48" viewBox="0 0 128 48" fill="none" xmlns="http://www.w3.org/2000/svg">
<path fill-rule="evenodd" clip-rule="evenodd" d="M127.193 30.5633C121.87 38.4606 113.439 36.1691 110.907 34.3749C109.829 35.0147 107.94 36.417 105.42 36.255C100.054 35.9104 98.1324 29.2007 98.1324 29.2007C98.171 29.2275 96.534 29.6949 95.6493 29.6866C95.6379 31.6542 93.694 36.3546 88.4479 36.2945C82.5609 36.2273 81.3641 28.5531 81.3641 28.5531C81.3641 28.5531 80.7783 29.2649 78.5508 29.9739C78.663 28.4622 78.581 36.0644 71.5252 36.1761C65.9472 36.2646 64.4415 28.4348 64.4415 28.4348C64.4415 28.4348 63.4738 29.3143 61.5985 29.6194C61.7177 28.0831 61.5239 36.2019 54.4673 36.1761C49.6985 36.1588 48.069 31.353 48.1957 30.686C48.3574 29.8359 46.584 36.2957 41.9519 36.195C40.0403 36.1459 38.6152 34.9349 37.721 33.3204C36.5239 34.5189 34.7858 36.195 32.8361 36.195C29.3362 36.195 27.7933 33.6337 28.0546 26.3179C28.0769 25.4502 28.0053 25.109 27.0195 24.9792C26.4278 24.8928 25.8219 24.7292 25.1807 24.643C24.9752 25.243 23.2323 35.9998 17.2391 36.204C15.2285 36.2725 14.1291 34.7485 13.2262 33.6174C11.8422 35.2194 10.0153 36.255 7.41257 36.255C3.00382 36.255 0 33.1365 0 29.2895C0 25.4425 3.00382 22.3242 7.41257 22.3242C8.19208 22.3242 8.41091 22.422 9.12304 22.6038C7.65851 10.9365 11.1171 9.11303 14.1427 9.11303C17.0474 9.11303 22.0097 15.012 15.0272 29.9751C16.5775 34.4381 19.9195 34.1857 21.5255 24.9982C21.8523 23.1307 20.9784 20.6105 22.3378 20.2588C24.8227 19.616 25.0864 21.5446 26.2515 21.866C27.4835 22.2056 28.2026 22.1724 29.3853 22.3885C31.4063 22.7339 32.1949 23.6838 31.9487 25.7996C31.653 28.4767 31.1357 32.3732 32.7129 32.8481C33.8502 33.1931 35.9266 31.1293 36.291 30.0001C36.6553 28.871 36.7314 28.4845 36.7637 27.6563C36.813 25.8861 36.8748 24.5886 37.2198 23.2499C37.3675 22.7319 37.5358 22.3888 38.2056 22.3654C38.7567 22.3531 39.7646 22.2079 40.2083 22.51C40.7996 22.8988 40.7257 23.2933 40.6578 24.3316C39.9701 39.1353 45.2635 31.7452 46.8418 25.8279C46.2798 19.1369 46.6656 9.23555 51.4575 9.06949C53.9497 8.98313 55.0515 10.7301 55.1726 12.034C55.5154 15.7168 53.5954 21.8172 51.0702 25.9197C49.627 34.2907 57.3802 35.9459 58.6201 29.2642C56.5915 28.4202 54.3993 25.0044 56.1832 23.3397C57.1842 22.4055 61.3511 23.7476 61.4193 26.6748C63.4633 26.1965 63.7361 25.1867 63.7645 25.354C63.2026 18.663 63.7237 9.23564 68.516 9.06957C71.0078 8.98321 72.1094 10.7301 72.2306 12.0341C72.5733 15.7168 70.6533 21.8173 68.1284 25.9199C66.6851 34.2907 74.4384 35.946 75.678 29.2643C74.1761 29.0107 71.0058 25.3775 72.835 23.3398C73.8126 22.2509 77.9641 24.5154 78.429 26.7717C80.3924 26.2855 80.6591 25.3078 80.6873 25.4724C80.1253 18.7816 80.6464 9.35422 85.4386 9.18815C87.9304 9.10179 89.032 10.8487 89.1532 12.1527C89.496 15.8354 87.5759 21.936 85.0507 26.0385C83.6077 34.4095 91.3609 36.0644 92.6008 29.3827C90.5369 29.082 87.6038 25.2458 89.9645 23.2833C90.9077 22.4992 94.5117 24.5346 95.3553 26.8568C96.5275 26.8173 97.2571 26.4636 97.4135 26.4279C95.5422 18.573 96.9353 9.14836 102.09 9.06969C104.877 9.02721 107.601 10.3877 106.405 17.8606C105.264 24.9906 101.161 27.9827 101.171 28.0285C101.41 28.8827 103.515 36.0312 108.816 32.2594C108.541 31.7157 108.267 31.1603 108.113 30.4874C107.234 26.5677 108.96 22.1404 113.651 21.4249C116.339 21.0149 118.87 22.1598 119.271 24.741C119.929 28.9645 115.571 32.0233 113.913 32.6868C113.171 32.3178 120.642 36.5107 125.077 28.108C125.334 27.6282 125.644 27.6689 126.045 27.9162C126.329 28.0908 127.944 29.4299 127.193 30.5633ZM10.6195 28.2517C10.3939 27.6615 9.93091 26.361 9.76718 25.7976C8.86546 25.1114 8.22183 25 7.06439 25C4.49219 25 2.97824 27.0809 2.97824 29.3247C2.97824 31.5684 4.62758 33.6496 7.19979 33.6496C9.42891 33.6496 11.1255 32.3235 11.6431 30.4462C11.2808 29.7143 10.9214 29.0417 10.6195 28.2517ZM14.0796 12.2015C12.2723 12.2015 11.6592 15.974 11.7782 19.1924C11.8834 22.0378 12.7921 24.5428 13.2635 25.6653C13.3831 25.8059 13.3609 25.7144 13.4678 25.8636C16.6059 19.8472 15.3043 12.2015 14.0796 12.2015ZM51.7157 12.32C49.3797 12.0855 49.3948 20.6001 49.6848 22.51C50.898 20.8118 53.0055 12.7772 51.7157 12.32ZM68.7736 12.32C66.4377 12.0855 66.4527 20.6001 66.7429 22.51C67.9559 20.8118 70.0636 12.7772 68.7736 12.32ZM85.6964 12.4384C83.3603 12.204 83.3754 20.7186 83.6655 22.6287C84.8786 20.9303 86.9862 12.8956 85.6964 12.4384ZM102.348 11.8215C98.7087 12.461 99.5562 23.0789 100.109 24.9412C104.396 19.789 104.484 11.628 102.348 11.8215ZM115.988 25.0903C115.803 24.4133 114.878 24.0515 114.239 24.1407C112.412 24.359 110.639 26.3505 111.326 29.3824C111.478 30.0576 111.86 30.6792 111.854 30.6585C115.944 28.2577 116.292 26.3659 115.988 25.0903ZM38.922 20.0218C38.3997 20.0219 37.8891 19.8864 37.4548 19.6326C37.0205 19.3787 36.6819 19.0179 36.4819 18.5957C36.282 18.1735 36.2297 17.7089 36.3316 17.2607C36.4333 16.8124 36.6849 16.4007 37.0542 16.0775C37.4235 15.7543 37.894 15.5342 38.4062 15.4451C38.9185 15.3559 39.4495 15.4016 39.9321 15.5765C40.4146 15.7514 40.827 16.0476 41.1171 16.4276C41.4073 16.8076 41.5622 17.2544 41.5622 17.7114C41.5622 18.0148 41.4939 18.3152 41.3612 18.5955C41.2286 18.8758 41.0341 19.1305 40.7889 19.345C40.5437 19.5596 40.2527 19.7298 39.9324 19.8459C39.6121 19.962 39.2688 20.0218 38.922 20.0218Z" fill="white"/>
</svg>
