<svg width="18" height="20" viewBox="0 0 18 20" fill="none" xmlns="http://www.w3.org/2000/svg">
<path d="M15.2768 4.25239C15.1441 4.18381 15.0149 4.10863 14.8898 4.02713C14.5258 3.7865 14.192 3.50296 13.8958 3.18262C13.1545 2.33442 12.8776 1.47394 12.7756 0.871476H12.7797C12.6945 0.371404 12.7298 0.0478516 12.7351 0.0478516H9.35867V13.1038C9.35867 13.2791 9.35867 13.4523 9.3513 13.6235C9.3513 13.6448 9.34925 13.6645 9.34802 13.6874C9.34802 13.6968 9.34802 13.7067 9.34597 13.7165C9.34597 13.7189 9.34597 13.7214 9.34597 13.7239C9.31038 14.1923 9.16022 14.6448 8.90869 15.0416C8.65716 15.4384 8.31198 15.7673 7.9035 15.9994C7.47779 16.2416 6.99629 16.3686 6.5065 16.368C4.93338 16.368 3.65842 15.0852 3.65842 13.5011C3.65842 11.9169 4.93338 10.6341 6.5065 10.6341C6.80428 10.6339 7.10023 10.6807 7.38336 10.773L7.38746 7.33514C6.52794 7.22412 5.65475 7.29243 4.82295 7.53576C3.99116 7.7791 3.21882 8.19218 2.55466 8.74894C1.9727 9.25458 1.48345 9.85791 1.10891 10.5318C0.966388 10.7775 0.428636 11.7649 0.363516 13.3675C0.32256 14.2772 0.595737 15.2196 0.725976 15.6091V15.6173C0.807888 15.8466 1.1253 16.6293 1.64257 17.2891C2.05968 17.8183 2.55248 18.2833 3.10511 18.6689V18.6607L3.1133 18.6689C4.74785 19.7796 6.56015 19.7067 6.56015 19.7067C6.87387 19.694 7.9248 19.7067 9.11826 19.1411C10.442 18.5141 11.1955 17.5799 11.1955 17.5799C11.677 17.0217 12.0598 16.3855 12.3276 15.6988C12.6331 14.8956 12.7351 13.9323 12.7351 13.5473V6.62087C12.776 6.64544 13.3216 7.00627 13.3216 7.00627C13.3216 7.00627 14.1075 7.51003 15.3337 7.83808C16.2135 8.07153 17.3987 8.12068 17.3987 8.12068V4.76884C16.9834 4.8139 16.1402 4.68284 15.2768 4.25239Z" fill="#FDFDFD"/>
</svg>
