<svg width="23" height="16" viewBox="0 0 23 16" fill="none" xmlns="http://www.w3.org/2000/svg">
<path fill-rule="evenodd" clip-rule="evenodd" d="M3.5 0.25C2.77065 0.25 2.07118 0.539731 1.55546 1.05546C1.03973 1.57118 0.75 2.27065 0.75 3V13C0.75 13.7293 1.03973 14.4288 1.55546 14.9445C2.07118 15.4603 2.77065 15.75 3.5 15.75H19.5C20.2293 15.75 20.9288 15.4603 21.4445 14.9445C21.9603 14.4288 22.25 13.7293 22.25 13V3C22.25 2.27065 21.9603 1.57118 21.4445 1.05546C20.9288 0.539731 20.2293 0.25 19.5 0.25H3.5ZM6.93 4.386C6.76698 4.27962 6.56899 4.24079 6.37787 4.27771C6.18674 4.31464 6.01746 4.42442 5.9058 4.58387C5.79414 4.74331 5.74884 4.93992 5.77948 5.13215C5.81012 5.32438 5.9143 5.49717 6.07 5.614L11.07 9.114C11.196 9.2022 11.3462 9.24951 11.5 9.24951C11.6538 9.24951 11.804 9.2022 11.93 9.114L16.93 5.614C17.0142 5.55904 17.0865 5.48771 17.1426 5.40425C17.1987 5.32079 17.2374 5.2269 17.2565 5.12817C17.2756 5.02943 17.2746 4.92787 17.2536 4.82952C17.2327 4.73117 17.1921 4.63804 17.1345 4.55567C17.0768 4.4733 17.0031 4.40337 16.9179 4.35005C16.8326 4.29672 16.7375 4.26108 16.6382 4.24525C16.5389 4.22942 16.4374 4.23373 16.3398 4.25791C16.2422 4.28208 16.1504 4.32565 16.07 4.386L11.5 7.585L6.93 4.386Z" fill="black"/>
</svg>
