<svg width="60" height="60" viewBox="0 0 60 60" fill="none" xmlns="http://www.w3.org/2000/svg">
<g clip-path="url(#clip0_25422_1727)">
<mask id="mask0_25422_1727" style="mask-type:luminance" maskUnits="userSpaceOnUse" x="0" y="0" width="60" height="60">
<path d="M60 0H0V60H60V0Z" fill="white"/>
</mask>
<g mask="url(#mask0_25422_1727)">
<path fill-rule="evenodd" clip-rule="evenodd" d="M32.1429 0H27.8571V18.9759L20.7486 1.38175L16.775 2.98721L24.0677 21.0372L10.302 7.27155L7.27158 10.302L20.4653 23.4957L3.36723 16.0254L1.65138 19.9527L19.7432 27.8571H0V32.1429H19.7431L1.65138 40.0473L3.36723 43.9746L20.4653 36.5043L7.27158 49.698L10.302 52.7283L24.0677 38.9628L16.775 57.0129L20.7486 58.6182L27.8571 41.0241V60H32.1429V41.0241L39.2514 58.6182L43.2249 57.0129L35.9325 38.9628L49.698 52.7283L52.7283 49.698L39.5346 36.5043L56.6328 43.9746L58.3485 40.0473L40.257 32.1429H60V27.8571H40.2567L58.3485 19.9527L56.6328 16.0254L39.5346 23.4957L52.7283 10.302L49.698 7.27155L35.9325 21.0371L43.2249 2.98721L39.2514 1.38175L32.1429 18.9759V0Z" fill="white" fill-opacity="0.2"/>
</g>
</g>
<defs>
<clipPath id="clip0_25422_1727">
<rect width="60" height="60" fill="white"/>
</clipPath>
</defs>
</svg>
