<svg width="26" height="39" viewBox="0 0 26 39" fill="none" xmlns="http://www.w3.org/2000/svg">
<path d="M21.8617 0.5H4.47036C2.38341 0.5 0.666016 2.23048 0.666016 4.33333V35C0.666016 37.1029 2.38341 38.8333 4.47036 38.8333H21.8617C23.9486 38.8333 25.666 37.1029 25.666 35V4.33333C25.666 2.23048 23.9486 0.5 21.8617 0.5ZM22.4051 35C22.4051 35.3067 22.166 35.5476 21.8617 35.5476H4.47036C4.16602 35.5476 3.92689 35.3067 3.92689 35V4.33333C3.92689 4.02667 4.16602 3.78571 4.47036 3.78571H21.8617C22.166 3.78571 22.4051 4.02667 22.4051 4.33333V35ZM15.3399 28.4286C15.3399 29.6333 14.3617 30.619 13.166 30.619C11.9704 30.619 10.9921 29.6333 10.9921 28.4286C10.9921 27.2238 11.9704 26.2381 13.166 26.2381C14.3617 26.2381 15.3399 27.2238 15.3399 28.4286Z" fill="#149BB0"/>
</svg>
