<svg width="34" height="35" viewBox="0 0 34 35" fill="none" xmlns="http://www.w3.org/2000/svg">
<path fill-rule="evenodd" clip-rule="evenodd" d="M15.2338 1.58953C15.7026 1.12136 16.338 0.858398 17.0005 0.858398C17.663 0.858398 18.2984 1.12136 18.7672 1.58953L23.4838 6.30287C23.7162 6.53503 23.9004 6.8107 24.0262 7.11412C24.1519 7.41754 24.2166 7.74276 24.2166 8.0712C24.2166 8.39964 24.1519 8.72486 24.0262 9.02828C23.9004 9.3317 23.7162 9.60736 23.4838 9.83953L18.7672 14.5529C18.2984 15.021 17.663 15.284 17.0005 15.284C16.338 15.284 15.7026 15.021 15.2338 14.5529L10.5172 9.83953C10.2849 9.60736 10.1006 9.3317 9.97483 9.02828C9.84909 8.72486 9.78437 8.39964 9.78437 8.0712C9.78437 7.74276 9.84909 7.41754 9.97483 7.11412C10.1006 6.8107 10.2849 6.53503 10.5172 6.30287L15.2338 1.58953ZM17.0005 4.5362L13.4655 8.0712L17.0005 11.6062L20.5355 8.07287L17.0005 4.5362ZM24.6605 11.0179C24.8927 10.7856 25.1683 10.6013 25.4718 10.4755C25.7752 10.3498 26.1004 10.2851 26.4288 10.2851C26.7573 10.2851 27.0825 10.3498 27.3859 10.4755C27.6893 10.6013 27.965 10.7856 28.1972 11.0179L32.9105 15.7312C33.1428 15.9634 33.3271 16.239 33.4529 16.5425C33.5786 16.8459 33.6433 17.1711 33.6433 17.4995C33.6433 17.828 33.5786 18.1532 33.4529 18.4566C33.3271 18.76 33.1428 19.0357 32.9105 19.2679L28.1972 23.9812C27.965 24.2135 27.6893 24.3978 27.3859 24.5235C27.0825 24.6493 26.7573 24.714 26.4288 24.714C26.1004 24.714 25.7752 24.6493 25.4718 24.5235C25.1683 24.3978 24.8927 24.2135 24.6605 23.9812L19.9472 19.2679C19.7149 19.0357 19.5306 18.76 19.4048 18.4566C19.2791 18.1532 19.2144 17.828 19.2144 17.4995C19.2144 17.1711 19.2791 16.8459 19.4048 16.5425C19.5306 16.239 19.7149 15.9634 19.9472 15.7312L24.6605 11.0179ZM26.4272 13.9645L22.8938 17.4979L26.4272 21.0345L29.9655 17.4995L26.4272 13.9645ZM5.80551 11.0162C6.03767 10.7839 6.31334 10.5996 6.61676 10.4739C6.92018 10.3481 7.2454 10.2834 7.57384 10.2834C7.90228 10.2834 8.2275 10.3481 8.53092 10.4739C8.83434 10.5996 9.11001 10.7839 9.34217 11.0162L14.0555 15.7295C14.2878 15.9617 14.4721 16.2374 14.5979 16.5408C14.7236 16.8442 14.7883 17.1694 14.7883 17.4979C14.7883 17.8263 14.7236 18.1515 14.5979 18.4549C14.4721 18.7584 14.2878 19.034 14.0555 19.2662L9.34217 23.9795C9.11001 24.2118 8.83434 24.3961 8.53092 24.5219C8.2275 24.6476 7.90228 24.7123 7.57384 24.7123C7.2454 24.7123 6.92018 24.6476 6.61676 24.5219C6.31334 24.3961 6.03767 24.2118 5.80551 23.9795L1.09217 19.2662C0.859858 19.034 0.675566 18.7584 0.549829 18.4549C0.424092 18.1515 0.359375 17.8263 0.359375 17.4979C0.359375 17.1694 0.424092 16.8442 0.549829 16.5408C0.675566 16.2374 0.859858 15.9617 1.09217 15.7295L5.80551 11.0162ZM7.57384 13.9629L4.03884 17.4962L7.57384 21.0329L11.1072 17.4995L7.57384 13.9629ZM15.2338 20.4445C15.466 20.2122 15.7417 20.0279 16.0451 19.9022C16.3485 19.7765 16.6737 19.7117 17.0022 19.7117C17.3306 19.7117 17.6558 19.7765 17.9593 19.9022C18.2627 20.0279 18.5383 20.2122 18.7705 20.4445L23.4838 25.1579C23.9525 25.6267 24.2158 26.2625 24.2158 26.9254C24.2158 27.5883 23.9525 28.224 23.4838 28.6929L18.7705 33.4079C18.5383 33.6402 18.2627 33.8245 17.9593 33.9502C17.6558 34.076 17.3306 34.1407 17.0022 34.1407C16.6737 34.1407 16.3485 34.076 16.0451 33.9502C15.7417 33.8245 15.466 33.6402 15.2338 33.4079L10.5205 28.6929C10.0523 28.2241 9.78937 27.5887 9.78937 26.9262C9.78937 26.2637 10.0523 25.6283 10.5205 25.1595L15.2338 20.4445ZM17.0005 23.3912L13.4655 26.9279L17.0005 30.4629L20.5355 26.9279L17.0005 23.3912Z" fill="#149BB0"/>
</svg>
