<svg width="34" height="35" viewBox="0 0 34 35" fill="none" xmlns="http://www.w3.org/2000/svg">
<path d="M24.2673 20.833C24.4007 19.733 24.5007 18.633 24.5007 17.4997C24.5007 16.3663 24.4007 15.2663 24.2673 14.1663H29.9007C30.1673 15.233 30.334 16.3497 30.334 17.4997C30.334 18.6497 30.1673 19.7663 29.9007 20.833M21.3173 30.0997C22.3173 28.2497 23.084 26.2497 23.6173 24.1663H28.534C26.9193 26.9468 24.3575 29.053 21.3173 30.0997ZM20.9007 20.833H13.1007C12.934 19.733 12.834 18.633 12.834 17.4997C12.834 16.3663 12.934 15.2497 13.1007 14.1663H20.9007C21.0507 15.2497 21.1673 16.3663 21.1673 17.4997C21.1673 18.633 21.0507 19.733 20.9007 20.833ZM17.0007 30.7663C15.6173 28.7663 14.5007 26.5497 13.8173 24.1663H20.184C19.5007 26.5497 18.384 28.7663 17.0007 30.7663ZM10.334 10.833H5.46732C7.06505 8.04473 9.62508 5.93508 12.6673 4.89967C11.6673 6.74967 10.9173 8.74967 10.334 10.833ZM5.46732 24.1663H10.334C10.9173 26.2497 11.6673 28.2497 12.6673 30.0997C9.63109 29.0535 7.07447 26.9467 5.46732 24.1663ZM4.10065 20.833C3.83398 19.7663 3.66732 18.6497 3.66732 17.4997C3.66732 16.3497 3.83398 15.233 4.10065 14.1663H9.73398C9.60065 15.2663 9.50065 16.3663 9.50065 17.4997C9.50065 18.633 9.60065 19.733 9.73398 20.833M17.0007 4.21634C18.384 6.21634 19.5007 8.44967 20.184 10.833H13.8173C14.5007 8.44967 15.6173 6.21634 17.0007 4.21634ZM28.534 10.833H23.6173C23.0949 8.76902 22.3225 6.77652 21.3173 4.89967C24.384 5.94967 26.934 8.06634 28.534 10.833ZM17.0007 0.833008C7.78398 0.833008 0.333984 8.33301 0.333984 17.4997C0.333984 21.9199 2.08993 26.1592 5.21554 29.2848C6.76318 30.8324 8.6005 32.0601 10.6226 32.8977C12.6447 33.7352 14.812 34.1663 17.0007 34.1663C21.4209 34.1663 25.6602 32.4104 28.7858 29.2848C31.9114 26.1592 33.6673 21.9199 33.6673 17.4997C33.6673 15.311 33.2362 13.1437 32.3986 11.1216C31.5611 9.09952 30.3334 7.2622 28.7858 5.71456C27.2381 4.16692 25.4008 2.93926 23.3787 2.10168C21.3566 1.2641 19.1893 0.833008 17.0007 0.833008Z" fill="#149BB0"/>
</svg>
