<svg width="38" height="29" viewBox="0 0 38 29" fill="none" xmlns="http://www.w3.org/2000/svg">
<path fill-rule="evenodd" clip-rule="evenodd" d="M24.5473 2.53997C24.6729 2.06918 24.6103 1.56798 24.3727 1.14254C24.1352 0.71711 23.7413 0.400861 23.2746 0.260788C22.8079 0.120715 22.305 0.167821 21.8725 0.392128C21.4399 0.616434 21.1117 1.00032 20.9573 1.46247L13.4573 26.4625C13.3351 26.9323 13.3999 27.4311 13.638 27.8541C13.8761 28.2771 14.269 28.5913 14.734 28.7305C15.1991 28.8698 15.7 28.8233 16.1314 28.6008C16.5628 28.3782 16.8911 27.9971 17.0473 27.5375L24.5473 2.53997ZM10.3273 6.92497C10.6784 7.27653 10.8756 7.75309 10.8756 8.24997C10.8756 8.74685 10.6784 9.22341 10.3273 9.57497L5.40226 14.5L10.3273 19.425C10.6585 19.7804 10.8388 20.2505 10.8302 20.7363C10.8216 21.222 10.6248 21.6855 10.2813 22.029C9.93778 22.3726 9.47432 22.5693 8.98856 22.5779C8.50281 22.5865 8.03269 22.4062 7.67726 22.075L1.42726 15.825C1.07613 15.4734 0.878906 14.9968 0.878906 14.5C0.878906 14.0031 1.07613 13.5265 1.42726 13.175L7.67726 6.92497C8.02882 6.57384 8.50538 6.37662 9.00226 6.37662C9.49913 6.37662 9.97569 6.57384 10.3273 6.92497ZM27.6773 22.075C27.3261 21.7234 27.1289 21.2468 27.1289 20.75C27.1289 20.2531 27.3261 19.7765 27.6773 19.425L32.6023 14.5L27.6773 9.57497C27.3461 9.21953 27.1657 8.74942 27.1743 8.26366C27.1829 7.77791 27.3797 7.31445 27.7232 6.97092C28.0667 6.62738 28.5302 6.4306 29.016 6.42203C29.5017 6.41346 29.9718 6.59377 30.3273 6.92497L36.5773 13.175C36.9284 13.5265 37.1256 14.0031 37.1256 14.5C37.1256 14.9968 36.9284 15.4734 36.5773 15.825L30.3273 22.075C29.9757 22.4261 29.4991 22.6233 29.0023 22.6233C28.5054 22.6233 28.0288 22.4261 27.6773 22.075Z" fill="#149BB0"/>
</svg>
